#!OML:ASF E:\emotionWalksFemale\Project 1\Capture day 1\Session 1\Female1.ASF
:FULLY-SPECIFIED
:DEGREES
128
root 8.48238 15.371 36.0914 -174.704 -3.44823 -175.769
lowerback 8.31545 -0.562726 0.185865
upperback -3.78121 -0.68172 1.33993
thorax -8.66505 -0.322601 1.42625
lowerneck -3.5733 -2.76459 -5.32406
upperneck 2.64304 -3.86451 8.54731
head 1.79088 -1.879 3.64156
rclavicle 1.26104e-014 -6.36111e-015
rhumerus -38.9449 13.8188 -93.1554
rradius 33.0803
rwrist 15.8263
rhand -1.63704 -54.6823
rfingers 7.12502
rthumb 24.0215 -83.1991
lclavicle 1.26104e-014 -6.36111e-015
lhumerus -36.9706 -4.98554 90.1102
lradius 35.5213
lwrist -14.4183
lhand -4.57106 -33.9899
lfingers 7.12502
lthumb 21.2055 -5.12977
rfemur -12.1176 16.6692 30.5838
rtibia 16.6678
rfoot -12.4176 -28.5976
rtoes 22.804
lfemur -11.7105 0.858749 -16.5391
ltibia 58.7735
lfoot 3.97427 -2.5756
ltoes -12.3435
129
root 8.48432 15.3621 35.9981 -175.261 -3.23974 -175.497
lowerback 8.65206 -0.393544 0.597659
upperback -3.55978 -0.397132 1.30797
thorax -8.63121 -0.204959 1.11672
lowerneck -3.40697 -2.93026 -5.49506
upperneck 2.5479 -4.09232 8.75518
head 1.759 -1.9975 3.74166
rclavicle -8.94531e-015 3.97569e-016
rhumerus -38.7761 13.9126 -93.1479
rradius 33.1114
rwrist 15.7595
rhand -1.25168 -54.897
rfingers 7.12502
rthumb 24.391 -83.3646
lclavicle -8.94531e-015 3.97569e-016
lhumerus -36.5647 -4.6923 89.8769
lradius 35.1944
lwrist -14.9594
lhand -5.8814 -35.0207
lfingers 7.12502
lthumb 19.9464 -6.02438
rfemur -10.7948 16.6374 31.1965
rtibia 16.0567
rfoot -12.0346 -28.5867
rtoes 22.2456
lfemur -12.5469 1.23211 -16.2644
ltibia 61.0181
lfoot 3.74216 -3.00525
ltoes -20.5902
130
root 8.47437 15.3579 35.878 -175.821 -2.89036 -175.39
lowerback 8.484 -0.208641 0.986636
upperback -3.22181 -0.108399 1.21
thorax -8.17266 -0.0849094 0.742445
lowerneck -3.2445 -3.0072 -5.71913
upperneck 2.44939 -4.2055 9.06293
head 1.72315 -2.05928 3.8922
rclavicle -4.18069e-015 -3.97569e-015
rhumerus -38.5714 13.9925 -93.1514
rradius 32.9842
rwrist 15.9356
rhand -1.3277 -54.714
rfingers 7.12502
rthumb 24.3181 -83.1914
lclavicle -4.18069e-015 -3.97569e-015
lhumerus -36.1796 -4.26963 89.6717
lradius 35.1516
lwrist -14.577
lhand -5.59511 -35.465
lfingers 7.12502
lthumb 20.2215 -6.49753
rfemur -9.45761 16.3191 31.6228
rtibia 15.6115
rfoot -11.6864 -28.2196
rtoes 21.0859
lfemur -13.1653 1.54072 -16.3018
ltibia 63.0422
lfoot 2.94009 -2.656
ltoes -20.7896
131
root 8.48449 15.3553 35.8044 -175.928 -3.16217 -175.493
lowerback 8.65703 -0.25168 0.901652
upperback -3.14777 -0.174216 1.14084
thorax -8.19295 -0.112278 0.727654
lowerneck -3.18376 -3.03965 -5.86856
upperneck 2.44815 -4.26715 9.36408
head 1.73155 -2.09256 4.02763
rclavicle 2.28602e-015 2.38542e-015
rhumerus -38.3289 14.2094 -93.232
rradius 32.8233
rwrist 16.1588
rhand -1.72413 -54.4204
rfingers 7.12502
rthumb 23.938 -82.9482
lclavicle 2.28602e-015 2.38542e-015
lhumerus -35.8919 -3.98974 89.5782
lradius 35.3341
lwrist -14.1074
lhand -6.02336 -35.123
lfingers 7.12502
lthumb 19.8099 -6.11252
rfemur -8.9913 16.1446 31.7019
rtibia 15.4846
rfoot -11.7548 -28.4562
rtoes 20.7055
lfemur -14.6684 1.28042 -16.4576
ltibia 64.9428
lfoot 2.09214 -1.83776
ltoes -18.7076
132
root 8.49953 15.3448 35.7319 -175.993 -3.52223 -175.253
lowerback 8.89063 -0.277239 1.17882
upperback -3.08826 -0.172062 1.10586
thorax -8.26597 -0.125787 0.535507
lowerneck -3.38783 -3.16551 -6.01698
upperneck 2.61339 -4.46448 9.74982
head 1.85906 -2.18602 4.187
rclavicle 2.38542e-015 -6.36111e-015
rhumerus -38.0487 14.2967 -93.2918
rradius 32.7675
rwrist 16.3354
rhand -1.57972 -54.4808
rfingers 7.12502
rthumb 24.0764 -82.9903
lclavicle 2.38542e-015 -6.36111e-015
lhumerus -35.4779 -3.79883 89.4112
lradius 35.4855
lwrist -14.0819
lhand -6.52627 -34.7547
lfingers 7.12502
lthumb 19.3264 -5.69503
rfemur -8.68162 16.2932 32.1595
rtibia 15.5978
rfoot -12.4051 -29.1263
rtoes 20.9618
lfemur -16.2833 1.08153 -16.1521
ltibia 66.7057
lfoot 1.11578 -1.05839
ltoes -17.3153
133
root 8.51746 15.3297 35.6498 -176.335 -3.88702 -175.219
lowerback 9.061 -0.310609 1.1136
upperback -2.85318 -0.220838 1.07028
thorax -8.11128 -0.143632 0.541029
lowerneck -3.43863 -3.24869 -6.13709
upperneck 2.66964 -4.59697 10.0406
head 1.91364 -2.25143 4.31085
rclavicle -1.4561e-014 1.11319e-014
rhumerus -37.7118 14.545 -93.3127
rradius 32.7761
rwrist 16.3121
rhand -1.16855 -54.8375
rfingers 7.12502
rthumb 24.4706 -83.2943
lclavicle -1.4561e-014 1.11319e-014
lhumerus -34.9606 -3.22102 89.149
lradius 35.692
lwrist -13.6647
lhand -5.77343 -34.6892
lfingers 7.12502
lthumb 20.0501 -5.70373
rfemur -8.09893 16.2185 32.5243
rtibia 15.9564
rfoot -13.2813 -29.4947
rtoes 21.5971
lfemur -17.4821 0.930876 -16.0737
ltibia 68.2115
lfoot 0.0984024 -0.596857
ltoes -19.3358
134
root 8.53359 15.3203 35.5577 -176.417 -3.86604 -175.36
lowerback 8.84995 -0.223726 0.745987
upperback -2.70113 -0.150856 1.07467
thorax -7.82404 -0.089356 0.738301
lowerneck -3.40209 -3.32554 -6.29181
upperneck 2.8915 -4.72765 10.4934
head 1.81274 -2.2945 4.04205
rclavicle 3.47873e-015 -7.95139e-016
rhumerus -37.4692 14.9496 -93.278
rradius 32.7585
rwrist 16.0092
rhand -1.36539 -54.9312
rfingers 7.12502
rthumb 24.2819 -83.4134
lclavicle 3.47873e-015 -7.95139e-016
lhumerus -34.7257 -2.75042 89.0561
lradius 35.3027
lwrist -14.8283
lhand -8.8095 -36.3196
lfingers 7.12502
lthumb 17.1298 -7.05469
rfemur -7.7653 16.1564 32.6125
rtibia 16.2965
rfoot -13.8346 -29.2473
rtoes 22.3758
lfemur -18.7527 1.04596 -16.268
ltibia 69.4086
lfoot -0.917742 -0.157041
ltoes -21.9527
135
root 8.54505 15.316 35.4643 -176.38 -3.85785 -175.665
lowerback 8.62901 -0.114579 0.345645
upperback -2.63311 -0.0576478 0.990716
thorax -7.62329 -0.0254199 0.858685
lowerneck -3.48346 -3.49324 -6.50024
upperneck 3.1784 -4.97294 10.6488
head 1.94074 -2.41017 4.11125
rclavicle 7.51655e-015 7.95139e-016
rhumerus -37.2534 15.1958 -93.2774
rradius 32.6336
rwrist 15.7782
rhand -1.71033 -54.7837
rfingers 7.12502
rthumb 23.9512 -83.3097
lclavicle 7.51655e-015 7.95139e-016
lhumerus -34.5115 -2.69607 89.1048
lradius 36.1156
lwrist -13.0697
lhand -6.43491 -34.5717
lfingers 7.12502
lthumb 19.4142 -5.52092
rfemur -7.60854 16.0692 32.475
rtibia 16.7321
rfoot -14.3626 -29.2133
rtoes 23.5444
lfemur -20.0453 1.09886 -16.6741
ltibia 70.2671
lfoot -1.82952 0.188425
ltoes -22.4647
136
root 8.55598 15.3087 35.3805 -176.513 -4.01839 -175.81
lowerback 8.76526 -0.0796139 0.198191
upperback -2.56232 -0.0312064 0.886314
thorax -7.62638 -0.0066696 0.827682
lowerneck -3.61745 -3.63459 -6.64831
upperneck 3.5066 -5.2017 10.914
head 2.09053 -2.51572 4.20282
rclavicle 4.75841e-015 9.54166e-015
rhumerus -36.9663 15.187 -93.3204
rradius 32.4199
rwrist 16.1005
rhand -1.56046 -54.8224
rfingers 7.12502
rthumb 24.0949 -83.3296
lclavicle 4.75841e-015 9.54166e-015
lhumerus -34.3282 -2.02993 88.6803
lradius 34.5956
lwrist -16.7874
lhand -12.1927 -38.1934
lfingers 7.12502
lthumb 13.8713 -8.676
rfemur -7.32425 15.9167 32.5579
rtibia 17.1972
rfoot -15.1266 -29.4314
rtoes 25.0522
lfemur -21.3008 0.988249 -16.8813
ltibia 70.9478
lfoot -2.83084 0.498917
ltoes -21.1683
137
root 8.56882 15.2974 35.2845 -176.922 -4.3237 -176.069
lowerback 8.91386 -0.11542 -0.155235
upperback -2.34465 -0.123418 0.782295
thorax -7.47747 -0.0364797 0.930273
lowerneck -3.61258 -3.68688 -6.8564
upperneck 3.66271 -5.30926 11.2838
head 2.16094 -2.56726 4.34481
rclavicle 1.46231e-014 -1.39149e-014
rhumerus -36.6727 15.1481 -93.3136
rradius 32.2572
rwrist 16.6627
rhand -1.34083 -55.0756
rfingers 7.12502
rthumb 24.3055 -83.5546
lclavicle 1.46231e-014 -1.39149e-014
lhumerus -34.0882 -1.90477 88.6485
lradius 35.0172
lwrist -15.7793
lhand -11.7097 -37.9679
lfingers 7.12502
lthumb 14.3367 -8.48292
rfemur -6.61182 15.6882 32.638
rtibia 17.6494
rfoot -16.0643 -29.7482
rtoes 25.3313
lfemur -22.0928 0.585663 -17.217
ltibia 71.3807
lfoot -4.1906 0.978022
ltoes -18.7855
138
root 8.5801 15.2805 35.2053 -177.242 -4.56205 -176.099
lowerback 9.26216 -0.103166 -0.207647
upperback -2.23337 -0.117956 0.677638
thorax -7.55935 -0.0328481 0.849789
lowerneck -3.46816 -3.76299 -6.96444
upperneck 3.75859 -5.45689 11.6103
head 2.19096 -2.64428 4.45841
rclavicle 4.17448e-015 6.75868e-015
rhumerus -36.4099 15.0533 -93.3756
rradius 32.0703
rwrist 16.9821
rhand -1.67878 -55.0608
rfingers 7.12502
rthumb 23.9815 -83.5829
lclavicle 4.17448e-015 6.75868e-015
lhumerus -33.9647 -2.16355 88.6428
lradius 35.3738
lwrist -15.1707
lhand -12.1417 -38.062
lfingers 7.12502
lthumb 13.9204 -8.54799
rfemur -6.07158 15.6125 32.9253
rtibia 18.0425
rfoot -16.6256 -30.1044
rtoes 25.0938
lfemur -23.0507 0.325656 -17.2737
ltibia 71.7244
lfoot -5.47336 1.33818
ltoes -17.4509
